<svg width="224" height="40" viewBox="0 0 224 40" fill="none" xmlns="http://www.w3.org/2000/svg">
<rect x="0.5" y="0.5" width="223" height="39" rx="19.5" stroke="#F37F0C"/>
<path d="M73.8069 24.612C72.8642 24.612 72.0896 24.43 71.4829 24.066C70.8762 23.6927 70.4282 23.17 70.1389 22.498C69.8496 21.826 69.7049 21.0327 69.7049 20.118V14.602H71.4549V20.16C71.4549 20.664 71.5249 21.1353 71.6649 21.574C71.8142 22.0033 72.0616 22.3487 72.4069 22.61C72.7616 22.8713 73.2376 23.002 73.8349 23.002C74.4416 23.002 74.9082 22.8713 75.2349 22.61C75.5709 22.3393 75.8042 21.9893 75.9349 21.56C76.0749 21.1307 76.1449 20.664 76.1449 20.16V14.602H77.9089V20.118C77.9089 21.0233 77.7642 21.812 77.4749 22.484C77.1856 23.156 76.7422 23.6787 76.1449 24.052C75.5476 24.4253 74.7682 24.612 73.8069 24.612ZM79.4962 27.216V17.122H81.0922L81.1762 18.116C81.4655 17.7333 81.8108 17.4533 82.2122 17.276C82.6135 17.0987 83.0568 17.01 83.5422 17.01C84.2702 17.01 84.8722 17.178 85.3482 17.514C85.8242 17.85 86.1788 18.3027 86.4122 18.872C86.6455 19.4413 86.7622 20.0853 86.7622 20.804C86.7622 21.5227 86.6408 22.1713 86.3982 22.75C86.1555 23.3193 85.7868 23.772 85.2922 24.108C84.8068 24.4347 84.1955 24.598 83.4582 24.598C83.1128 24.598 82.7955 24.5607 82.5062 24.486C82.2262 24.4113 81.9742 24.304 81.7502 24.164C81.5355 24.024 81.3535 23.8653 81.2042 23.688V27.216H79.4962ZM83.1922 23.058C83.6682 23.058 84.0415 22.9553 84.3122 22.75C84.5828 22.5353 84.7788 22.26 84.9002 21.924C85.0215 21.5787 85.0822 21.2147 85.0822 20.832C85.0822 20.4307 85.0168 20.0573 84.8862 19.712C84.7648 19.3667 84.5642 19.0867 84.2842 18.872C84.0042 18.6573 83.6308 18.55 83.1642 18.55C82.7348 18.55 82.3708 18.6573 82.0722 18.872C81.7828 19.0773 81.5635 19.3527 81.4142 19.698C81.2648 20.0433 81.1902 20.4167 81.1902 20.818C81.1902 21.2287 81.2602 21.6067 81.4002 21.952C81.5402 22.288 81.7595 22.5587 82.0582 22.764C82.3568 22.96 82.7348 23.058 83.1922 23.058ZM91.2868 27.874C90.7454 27.874 90.2368 27.7853 89.7608 27.608C89.2941 27.44 88.8974 27.1693 88.5708 26.796C88.2534 26.432 88.0388 25.9607 87.9268 25.382H89.6768C89.7328 25.606 89.8448 25.788 90.0128 25.928C90.1808 26.068 90.3768 26.166 90.6008 26.222C90.8341 26.2873 91.0721 26.32 91.3148 26.32C91.7721 26.32 92.1314 26.2267 92.3928 26.04C92.6634 25.8533 92.8548 25.5967 92.9668 25.27C93.0788 24.9527 93.1348 24.6027 93.1348 24.22V23.52C92.9668 23.7907 92.7521 24.0053 92.4908 24.164C92.2388 24.3227 91.9681 24.4347 91.6788 24.5C91.3988 24.556 91.1188 24.584 90.8388 24.584C90.0734 24.584 89.4481 24.416 88.9628 24.08C88.4868 23.744 88.1368 23.296 87.9128 22.736C87.6888 22.1667 87.5768 21.5413 87.5768 20.86C87.5768 20.1507 87.6981 19.5067 87.9408 18.928C88.1928 18.34 88.5661 17.8733 89.0608 17.528C89.5648 17.1827 90.1948 17.01 90.9508 17.01C91.3894 17.01 91.8001 17.0893 92.1828 17.248C92.5748 17.3973 92.9014 17.626 93.1628 17.934L93.2748 17.122H94.8568V23.856C94.8568 24.6867 94.7354 25.4007 94.4928 25.998C94.2594 26.6047 93.8814 27.0667 93.3588 27.384C92.8361 27.7107 92.1454 27.874 91.2868 27.874ZM91.1888 23.072C91.6274 23.072 91.9914 22.9693 92.2808 22.764C92.5701 22.5493 92.7894 22.2693 92.9388 21.924C93.0881 21.5693 93.1628 21.1867 93.1628 20.776C93.1628 20.356 93.0881 19.978 92.9388 19.642C92.7988 19.306 92.5841 19.04 92.2948 18.844C92.0148 18.648 91.6508 18.55 91.2028 18.55C90.7268 18.55 90.3488 18.6573 90.0688 18.872C89.7888 19.0867 89.5834 19.3713 89.4528 19.726C89.3314 20.0713 89.2708 20.44 89.2708 20.832C89.2708 21.2427 89.3361 21.6207 89.4668 21.966C89.5974 22.302 89.8028 22.5727 90.0828 22.778C90.3628 22.974 90.7314 23.072 91.1888 23.072ZM96.2311 24.5V17.122H97.7851L97.8831 18.088C98.0697 17.808 98.2797 17.5933 98.5131 17.444C98.7557 17.2853 99.0124 17.1733 99.2831 17.108C99.5631 17.0427 99.8431 17.01 100.123 17.01C100.226 17.01 100.319 17.01 100.403 17.01C100.496 17.01 100.571 17.0147 100.627 17.024V18.648H100.179C99.6937 18.648 99.2831 18.7413 98.9471 18.928C98.6111 19.1147 98.3591 19.3807 98.1911 19.726C98.0231 20.0713 97.9391 20.496 97.9391 21V24.5H96.2311ZM103.703 24.598C103.358 24.598 103.031 24.5513 102.723 24.458C102.415 24.3647 102.14 24.2293 101.897 24.052C101.655 23.8653 101.459 23.6367 101.309 23.366C101.169 23.086 101.099 22.7593 101.099 22.386C101.099 21.91 101.193 21.5227 101.379 21.224C101.566 20.916 101.818 20.6827 102.135 20.524C102.462 20.3653 102.831 20.258 103.241 20.202C103.652 20.1367 104.081 20.104 104.529 20.104H105.971C105.971 19.7773 105.92 19.4973 105.817 19.264C105.715 19.0213 105.551 18.83 105.327 18.69C105.113 18.55 104.833 18.48 104.487 18.48C104.263 18.48 104.053 18.508 103.857 18.564C103.671 18.6107 103.507 18.69 103.367 18.802C103.237 18.9047 103.143 19.04 103.087 19.208H101.337C101.403 18.8253 101.533 18.4987 101.729 18.228C101.935 17.948 102.182 17.7193 102.471 17.542C102.77 17.3647 103.097 17.234 103.451 17.15C103.806 17.0567 104.165 17.01 104.529 17.01C105.603 17.01 106.382 17.318 106.867 17.934C107.362 18.55 107.609 19.4133 107.609 20.524V24.5H106.097L106.055 23.548C105.841 23.8653 105.584 24.0987 105.285 24.248C104.987 24.3973 104.697 24.4907 104.417 24.528C104.137 24.5747 103.899 24.598 103.703 24.598ZM104.039 23.212C104.413 23.212 104.744 23.142 105.033 23.002C105.323 22.862 105.551 22.666 105.719 22.414C105.897 22.162 105.985 21.8727 105.985 21.546V21.308H104.641C104.417 21.308 104.193 21.3173 103.969 21.336C103.755 21.3453 103.559 21.3827 103.381 21.448C103.204 21.504 103.059 21.5927 102.947 21.714C102.845 21.8353 102.793 22.008 102.793 22.232C102.793 22.456 102.849 22.638 102.961 22.778C103.083 22.918 103.237 23.0253 103.423 23.1C103.619 23.1747 103.825 23.212 104.039 23.212ZM111.97 24.598C111.223 24.598 110.607 24.43 110.122 24.094C109.637 23.7487 109.273 23.2913 109.03 22.722C108.797 22.1527 108.68 21.518 108.68 20.818C108.68 20.09 108.806 19.4413 109.058 18.872C109.31 18.2933 109.688 17.8407 110.192 17.514C110.696 17.178 111.326 17.01 112.082 17.01C112.362 17.01 112.633 17.0427 112.894 17.108C113.165 17.164 113.417 17.2573 113.65 17.388C113.893 17.5093 114.093 17.6727 114.252 17.878V14.602H115.96V24.5H114.308L114.28 23.576C114.103 23.8093 113.893 24.0007 113.65 24.15C113.417 24.2993 113.155 24.4113 112.866 24.486C112.577 24.5607 112.278 24.598 111.97 24.598ZM112.292 23.058C112.74 23.058 113.109 22.9553 113.398 22.75C113.687 22.5353 113.902 22.2553 114.042 21.91C114.191 21.5553 114.266 21.182 114.266 20.79C114.266 20.3793 114.191 20.006 114.042 19.67C113.902 19.334 113.687 19.0633 113.398 18.858C113.109 18.6527 112.74 18.55 112.292 18.55C111.816 18.55 111.438 18.6573 111.158 18.872C110.887 19.0867 110.687 19.3713 110.556 19.726C110.435 20.0713 110.374 20.4447 110.374 20.846C110.374 21.1447 110.407 21.4293 110.472 21.7C110.547 21.9613 110.659 22.1947 110.808 22.4C110.957 22.6053 111.153 22.7687 111.396 22.89C111.639 23.002 111.937 23.058 112.292 23.058ZM120.638 24.598C119.873 24.598 119.22 24.4393 118.678 24.122C118.146 23.8047 117.74 23.366 117.46 22.806C117.19 22.2367 117.054 21.5787 117.054 20.832C117.054 20.0853 117.194 19.4273 117.474 18.858C117.764 18.2793 118.174 17.8267 118.706 17.5C119.248 17.1733 119.896 17.01 120.652 17.01C121.212 17.01 121.702 17.1127 122.122 17.318C122.542 17.514 122.892 17.7847 123.172 18.13C123.462 18.4753 123.676 18.8673 123.816 19.306C123.956 19.7447 124.022 20.2067 124.012 20.692C124.003 20.804 123.994 20.916 123.984 21.028C123.975 21.1307 123.961 21.2427 123.942 21.364H118.762C118.79 21.6907 118.874 21.9893 119.014 22.26C119.164 22.5307 119.369 22.7453 119.63 22.904C119.901 23.0627 120.237 23.142 120.638 23.142C120.872 23.142 121.096 23.114 121.31 23.058C121.525 22.9927 121.712 22.8993 121.87 22.778C122.038 22.6567 122.15 22.5027 122.206 22.316H123.914C123.793 22.848 123.569 23.282 123.242 23.618C122.916 23.954 122.524 24.2013 122.066 24.36C121.618 24.5187 121.142 24.598 120.638 24.598ZM118.79 20.09H122.346C122.346 19.782 122.276 19.502 122.136 19.25C121.996 18.998 121.796 18.802 121.534 18.662C121.282 18.5127 120.974 18.438 120.61 18.438C120.218 18.438 119.892 18.5173 119.63 18.676C119.369 18.8347 119.168 19.04 119.028 19.292C118.888 19.544 118.809 19.81 118.79 20.09ZM128.71 27.216V17.122H130.306L130.39 18.116C130.679 17.7333 131.025 17.4533 131.426 17.276C131.827 17.0987 132.271 17.01 132.756 17.01C133.484 17.01 134.086 17.178 134.562 17.514C135.038 17.85 135.393 18.3027 135.626 18.872C135.859 19.4413 135.976 20.0853 135.976 20.804C135.976 21.5227 135.855 22.1713 135.612 22.75C135.369 23.3193 135.001 23.772 134.506 24.108C134.021 24.4347 133.409 24.598 132.672 24.598C132.327 24.598 132.009 24.5607 131.72 24.486C131.44 24.4113 131.188 24.304 130.964 24.164C130.749 24.024 130.567 23.8653 130.418 23.688V27.216H128.71ZM132.406 23.058C132.882 23.058 133.255 22.9553 133.526 22.75C133.797 22.5353 133.993 22.26 134.114 21.924C134.235 21.5787 134.296 21.2147 134.296 20.832C134.296 20.4307 134.231 20.0573 134.1 19.712C133.979 19.3667 133.778 19.0867 133.498 18.872C133.218 18.6573 132.845 18.55 132.378 18.55C131.949 18.55 131.585 18.6573 131.286 18.872C130.997 19.0773 130.777 19.3527 130.628 19.698C130.479 20.0433 130.404 20.4167 130.404 20.818C130.404 21.2287 130.474 21.6067 130.614 21.952C130.754 22.288 130.973 22.5587 131.272 22.764C131.571 22.96 131.949 23.058 132.406 23.058ZM137.071 24.5V14.602H138.779V24.5H137.071ZM142.506 24.598C142.161 24.598 141.834 24.5513 141.526 24.458C141.218 24.3647 140.943 24.2293 140.7 24.052C140.457 23.8653 140.261 23.6367 140.112 23.366C139.972 23.086 139.902 22.7593 139.902 22.386C139.902 21.91 139.995 21.5227 140.182 21.224C140.369 20.916 140.621 20.6827 140.938 20.524C141.265 20.3653 141.633 20.258 142.044 20.202C142.455 20.1367 142.884 20.104 143.332 20.104H144.774C144.774 19.7773 144.723 19.4973 144.62 19.264C144.517 19.0213 144.354 18.83 144.13 18.69C143.915 18.55 143.635 18.48 143.29 18.48C143.066 18.48 142.856 18.508 142.66 18.564C142.473 18.6107 142.31 18.69 142.17 18.802C142.039 18.9047 141.946 19.04 141.89 19.208H140.14C140.205 18.8253 140.336 18.4987 140.532 18.228C140.737 17.948 140.985 17.7193 141.274 17.542C141.573 17.3647 141.899 17.234 142.254 17.15C142.609 17.0567 142.968 17.01 143.332 17.01C144.405 17.01 145.185 17.318 145.67 17.934C146.165 18.55 146.412 19.4133 146.412 20.524V24.5H144.9L144.858 23.548C144.643 23.8653 144.387 24.0987 144.088 24.248C143.789 24.3973 143.5 24.4907 143.22 24.528C142.94 24.5747 142.702 24.598 142.506 24.598ZM142.842 23.212C143.215 23.212 143.547 23.142 143.836 23.002C144.125 22.862 144.354 22.666 144.522 22.414C144.699 22.162 144.788 21.8727 144.788 21.546V21.308H143.444C143.22 21.308 142.996 21.3173 142.772 21.336C142.557 21.3453 142.361 21.3827 142.184 21.448C142.007 21.504 141.862 21.5927 141.75 21.714C141.647 21.8353 141.596 22.008 141.596 22.232C141.596 22.456 141.652 22.638 141.764 22.778C141.885 22.918 142.039 23.0253 142.226 23.1C142.422 23.1747 142.627 23.212 142.842 23.212ZM147.763 24.5V17.122H149.359L149.457 18.06C149.653 17.7987 149.881 17.5933 150.143 17.444C150.404 17.2947 150.679 17.1873 150.969 17.122C151.258 17.0473 151.529 17.01 151.781 17.01C152.481 17.01 153.031 17.164 153.433 17.472C153.843 17.78 154.133 18.1907 154.301 18.704C154.469 19.2173 154.553 19.7913 154.553 20.426V24.5H152.845V20.706C152.845 20.4353 152.826 20.174 152.789 19.922C152.751 19.6607 152.677 19.4273 152.565 19.222C152.462 19.0167 152.313 18.8533 152.117 18.732C151.921 18.6107 151.659 18.55 151.333 18.55C150.931 18.55 150.591 18.6573 150.311 18.872C150.031 19.0867 149.821 19.376 149.681 19.74C149.541 20.0947 149.471 20.5007 149.471 20.958V24.5H147.763Z" fill="white"/>
</svg>
