<svg width="256" height="40" viewBox="0 0 256 40" fill="none" xmlns="http://www.w3.org/2000/svg">
<rect width="256" height="40" rx="20" fill="white" fill-opacity="0.15"/>
<path d="M83 20H93" stroke="white" stroke-width="1.5" stroke-linecap="round" stroke-linejoin="round"/>
<path d="M88 25V15" stroke="white" stroke-width="1.5" stroke-linecap="round" stroke-linejoin="round"/>
<path d="M107.603 24.612C106.577 24.612 105.713 24.402 105.013 23.982C104.313 23.5527 103.786 22.96 103.431 22.204C103.077 21.448 102.899 20.5707 102.899 19.572C102.899 18.5733 103.081 17.6913 103.445 16.926C103.809 16.1607 104.341 15.5633 105.041 15.134C105.741 14.6953 106.595 14.476 107.603 14.476C108.35 14.476 109.008 14.602 109.577 14.854C110.147 15.106 110.609 15.4653 110.963 15.932C111.327 16.3893 111.561 16.954 111.663 17.626H109.969C109.839 17.15 109.573 16.7767 109.171 16.506C108.77 16.2353 108.247 16.1 107.603 16.1C106.903 16.1 106.339 16.2633 105.909 16.59C105.48 16.9167 105.167 17.3367 104.971 17.85C104.785 18.3633 104.691 18.914 104.691 19.502C104.691 20.1087 104.789 20.678 104.985 21.21C105.191 21.742 105.513 22.1713 105.951 22.498C106.39 22.8247 106.955 22.988 107.645 22.988C108.075 22.988 108.448 22.9273 108.765 22.806C109.092 22.6847 109.363 22.512 109.577 22.288C109.801 22.0547 109.955 21.784 110.039 21.476H111.817C111.705 22.1387 111.453 22.7033 111.061 23.17C110.679 23.6367 110.189 23.996 109.591 24.248C109.003 24.4907 108.341 24.612 107.603 24.612ZM112.839 24.5V17.122H114.393L114.491 18.088C114.677 17.808 114.887 17.5933 115.121 17.444C115.363 17.2853 115.62 17.1733 115.891 17.108C116.171 17.0427 116.451 17.01 116.731 17.01C116.833 17.01 116.927 17.01 117.011 17.01C117.104 17.01 117.179 17.0147 117.235 17.024V18.648H116.787C116.301 18.648 115.891 18.7413 115.555 18.928C115.219 19.1147 114.967 19.3807 114.799 19.726C114.631 20.0713 114.547 20.496 114.547 21V24.5H112.839ZM121.126 24.598C120.361 24.598 119.708 24.4393 119.166 24.122C118.634 23.8047 118.228 23.366 117.948 22.806C117.678 22.2367 117.542 21.5787 117.542 20.832C117.542 20.0853 117.682 19.4273 117.962 18.858C118.252 18.2793 118.662 17.8267 119.194 17.5C119.736 17.1733 120.384 17.01 121.14 17.01C121.7 17.01 122.19 17.1127 122.61 17.318C123.03 17.514 123.38 17.7847 123.66 18.13C123.95 18.4753 124.164 18.8673 124.304 19.306C124.444 19.7447 124.51 20.2067 124.5 20.692C124.491 20.804 124.482 20.916 124.472 21.028C124.463 21.1307 124.449 21.2427 124.43 21.364H119.25C119.278 21.6907 119.362 21.9893 119.502 22.26C119.652 22.5307 119.857 22.7453 120.118 22.904C120.389 23.0627 120.725 23.142 121.126 23.142C121.36 23.142 121.584 23.114 121.798 23.058C122.013 22.9927 122.2 22.8993 122.358 22.778C122.526 22.6567 122.638 22.5027 122.694 22.316H124.402C124.281 22.848 124.057 23.282 123.73 23.618C123.404 23.954 123.012 24.2013 122.554 24.36C122.106 24.5187 121.63 24.598 121.126 24.598ZM119.278 20.09H122.834C122.834 19.782 122.764 19.502 122.624 19.25C122.484 18.998 122.284 18.802 122.022 18.662C121.77 18.5127 121.462 18.438 121.098 18.438C120.706 18.438 120.38 18.5173 120.118 18.676C119.857 18.8347 119.656 19.04 119.516 19.292C119.376 19.544 119.297 19.81 119.278 20.09ZM127.933 24.598C127.588 24.598 127.261 24.5513 126.953 24.458C126.645 24.3647 126.37 24.2293 126.127 24.052C125.885 23.8653 125.689 23.6367 125.539 23.366C125.399 23.086 125.329 22.7593 125.329 22.386C125.329 21.91 125.423 21.5227 125.609 21.224C125.796 20.916 126.048 20.6827 126.365 20.524C126.692 20.3653 127.061 20.258 127.471 20.202C127.882 20.1367 128.311 20.104 128.759 20.104H130.201C130.201 19.7773 130.15 19.4973 130.047 19.264C129.945 19.0213 129.781 18.83 129.557 18.69C129.343 18.55 129.063 18.48 128.717 18.48C128.493 18.48 128.283 18.508 128.087 18.564C127.901 18.6107 127.737 18.69 127.597 18.802C127.467 18.9047 127.373 19.04 127.317 19.208H125.567C125.633 18.8253 125.763 18.4987 125.959 18.228C126.165 17.948 126.412 17.7193 126.701 17.542C127 17.3647 127.327 17.234 127.681 17.15C128.036 17.0567 128.395 17.01 128.759 17.01C129.833 17.01 130.612 17.318 131.097 17.934C131.592 18.55 131.839 19.4133 131.839 20.524V24.5H130.327L130.285 23.548C130.071 23.8653 129.814 24.0987 129.515 24.248C129.217 24.3973 128.927 24.4907 128.647 24.528C128.367 24.5747 128.129 24.598 127.933 24.598ZM128.269 23.212C128.643 23.212 128.974 23.142 129.263 23.002C129.553 22.862 129.781 22.666 129.949 22.414C130.127 22.162 130.215 21.8727 130.215 21.546V21.308H128.871C128.647 21.308 128.423 21.3173 128.199 21.336C127.985 21.3453 127.789 21.3827 127.611 21.448C127.434 21.504 127.289 21.5927 127.177 21.714C127.075 21.8353 127.023 22.008 127.023 22.232C127.023 22.456 127.079 22.638 127.191 22.778C127.313 22.918 127.467 23.0253 127.653 23.1C127.849 23.1747 128.055 23.212 128.269 23.212ZM136.13 24.584C135.318 24.584 134.725 24.36 134.352 23.912C133.979 23.464 133.792 22.8433 133.792 22.05V18.634H132.658V17.122H133.792V15.05H135.5V17.122H137.74V18.634H135.5V21.728C135.5 21.9707 135.528 22.19 135.584 22.386C135.64 22.582 135.743 22.736 135.892 22.848C136.041 22.96 136.247 23.0207 136.508 23.03C136.732 23.03 136.923 22.9927 137.082 22.918C137.241 22.8433 137.371 22.7593 137.474 22.666L138.048 23.968C137.871 24.1173 137.67 24.2387 137.446 24.332C137.231 24.4253 137.012 24.4907 136.788 24.528C136.564 24.5653 136.345 24.584 136.13 24.584ZM141.997 24.598C141.232 24.598 140.579 24.4393 140.037 24.122C139.505 23.8047 139.099 23.366 138.819 22.806C138.549 22.2367 138.413 21.5787 138.413 20.832C138.413 20.0853 138.553 19.4273 138.833 18.858C139.123 18.2793 139.533 17.8267 140.065 17.5C140.607 17.1733 141.255 17.01 142.011 17.01C142.571 17.01 143.061 17.1127 143.481 17.318C143.901 17.514 144.251 17.7847 144.531 18.13C144.821 18.4753 145.035 18.8673 145.175 19.306C145.315 19.7447 145.381 20.2067 145.371 20.692C145.362 20.804 145.353 20.916 145.343 21.028C145.334 21.1307 145.32 21.2427 145.301 21.364H140.121C140.149 21.6907 140.233 21.9893 140.373 22.26C140.523 22.5307 140.728 22.7453 140.989 22.904C141.26 23.0627 141.596 23.142 141.997 23.142C142.231 23.142 142.455 23.114 142.669 23.058C142.884 22.9927 143.071 22.8993 143.229 22.778C143.397 22.6567 143.509 22.5027 143.565 22.316H145.273C145.152 22.848 144.928 23.282 144.601 23.618C144.275 23.954 143.883 24.2013 143.425 24.36C142.977 24.5187 142.501 24.598 141.997 24.598ZM140.149 20.09H143.705C143.705 19.782 143.635 19.502 143.495 19.25C143.355 18.998 143.155 18.802 142.893 18.662C142.641 18.5127 142.333 18.438 141.969 18.438C141.577 18.438 141.251 18.5173 140.989 18.676C140.728 18.8347 140.527 19.04 140.387 19.292C140.247 19.544 140.168 19.81 140.149 20.09ZM153.317 24.598C152.551 24.598 151.907 24.444 151.385 24.136C150.862 23.8187 150.465 23.3753 150.195 22.806C149.924 22.2367 149.789 21.5787 149.789 20.832C149.789 20.0853 149.929 19.4273 150.209 18.858C150.489 18.2793 150.899 17.8267 151.441 17.5C151.982 17.1733 152.64 17.01 153.415 17.01C153.984 17.01 154.488 17.108 154.927 17.304C155.375 17.5 155.734 17.7893 156.005 18.172C156.285 18.5453 156.462 19.012 156.537 19.572H154.857C154.745 19.2173 154.558 18.9607 154.297 18.802C154.045 18.634 153.741 18.55 153.387 18.55C152.911 18.55 152.533 18.6667 152.253 18.9C151.982 19.124 151.786 19.4087 151.665 19.754C151.543 20.0993 151.483 20.4587 151.483 20.832C151.483 21.224 151.548 21.5927 151.679 21.938C151.809 22.274 152.01 22.5447 152.281 22.75C152.561 22.9553 152.92 23.058 153.359 23.058C153.713 23.058 154.031 22.9787 154.311 22.82C154.6 22.6613 154.787 22.4047 154.871 22.05H156.607C156.541 22.6193 156.35 23.0953 156.033 23.478C155.725 23.8513 155.333 24.1313 154.857 24.318C154.381 24.5047 153.867 24.598 153.317 24.598ZM157.609 24.5V14.602H159.317V18.074C159.513 17.822 159.742 17.6167 160.003 17.458C160.264 17.2993 160.54 17.1873 160.829 17.122C161.118 17.0473 161.394 17.01 161.655 17.01C162.355 17.01 162.906 17.164 163.307 17.472C163.708 17.78 163.988 18.1907 164.147 18.704C164.315 19.2173 164.399 19.796 164.399 20.44V24.5H162.691V20.734C162.691 20.482 162.672 20.2253 162.635 19.964C162.598 19.7027 162.523 19.4693 162.411 19.264C162.308 19.0493 162.15 18.8767 161.935 18.746C161.73 18.6153 161.454 18.55 161.109 18.55C160.782 18.55 160.502 18.62 160.269 18.76C160.036 18.8907 159.849 19.0727 159.709 19.306C159.578 19.5393 159.48 19.796 159.415 20.076C159.35 20.356 159.317 20.636 159.317 20.916V24.5H157.609ZM168.076 24.598C167.73 24.598 167.404 24.5513 167.096 24.458C166.788 24.3647 166.512 24.2293 166.27 24.052C166.027 23.8653 165.831 23.6367 165.682 23.366C165.542 23.086 165.472 22.7593 165.472 22.386C165.472 21.91 165.565 21.5227 165.752 21.224C165.938 20.916 166.19 20.6827 166.508 20.524C166.834 20.3653 167.203 20.258 167.614 20.202C168.024 20.1367 168.454 20.104 168.902 20.104H170.344C170.344 19.7773 170.292 19.4973 170.19 19.264C170.087 19.0213 169.924 18.83 169.7 18.69C169.485 18.55 169.205 18.48 168.86 18.48C168.636 18.48 168.426 18.508 168.23 18.564C168.043 18.6107 167.88 18.69 167.74 18.802C167.609 18.9047 167.516 19.04 167.46 19.208H165.71C165.775 18.8253 165.906 18.4987 166.102 18.228C166.307 17.948 166.554 17.7193 166.844 17.542C167.142 17.3647 167.469 17.234 167.824 17.15C168.178 17.0567 168.538 17.01 168.902 17.01C169.975 17.01 170.754 17.318 171.24 17.934C171.734 18.55 171.982 19.4133 171.982 20.524V24.5H170.47L170.428 23.548C170.213 23.8653 169.956 24.0987 169.658 24.248C169.359 24.3973 169.07 24.4907 168.79 24.528C168.51 24.5747 168.272 24.598 168.076 24.598ZM168.412 23.212C168.785 23.212 169.116 23.142 169.406 23.002C169.695 22.862 169.924 22.666 170.092 22.414C170.269 22.162 170.358 21.8727 170.358 21.546V21.308H169.014C168.79 21.308 168.566 21.3173 168.342 21.336C168.127 21.3453 167.931 21.3827 167.754 21.448C167.576 21.504 167.432 21.5927 167.32 21.714C167.217 21.8353 167.166 22.008 167.166 22.232C167.166 22.456 167.222 22.638 167.334 22.778C167.455 22.918 167.609 23.0253 167.796 23.1C167.992 23.1747 168.197 23.212 168.412 23.212ZM176.552 24.5C175.955 24.5 175.46 24.4207 175.068 24.262C174.686 24.1033 174.396 23.8467 174.2 23.492C174.014 23.1373 173.92 22.6613 173.92 22.064V18.634H172.786V17.122H173.92V15.064H175.628V17.122H177.35V18.634H175.628V21.84C175.628 22.2133 175.694 22.498 175.824 22.694C175.955 22.89 176.249 22.988 176.706 22.988H177.294V24.5H176.552Z" fill="white"/>
</svg>
