<svg width="256" height="40" viewBox="0 0 256 40" fill="none" xmlns="http://www.w3.org/2000/svg">
<rect x="0.5" y="0.5" width="255" height="39" rx="19.5" stroke="white" stroke-opacity="0.15"/>
<path d="M87 20H97" stroke="white" stroke-width="1.5" stroke-linecap="round" stroke-linejoin="round"/>
<path d="M92 25V15" stroke="white" stroke-width="1.5" stroke-linecap="round" stroke-linejoin="round"/>
<path d="M106.343 24.5L110.137 14.602H112.223L116.003 24.5H114.113L113.455 22.666H108.891L108.219 24.5H106.343ZM109.451 21.084H112.881L111.173 16.366L109.451 21.084ZM119.619 24.598C118.872 24.598 118.256 24.43 117.771 24.094C117.285 23.7487 116.921 23.2913 116.679 22.722C116.445 22.1527 116.329 21.518 116.329 20.818C116.329 20.09 116.455 19.4413 116.707 18.872C116.959 18.2933 117.337 17.8407 117.841 17.514C118.345 17.178 118.975 17.01 119.731 17.01C120.011 17.01 120.281 17.0427 120.543 17.108C120.813 17.164 121.065 17.2573 121.299 17.388C121.541 17.5093 121.742 17.6727 121.901 17.878V14.602H123.609V24.5H121.957L121.929 23.576C121.751 23.8093 121.541 24.0007 121.299 24.15C121.065 24.2993 120.804 24.4113 120.515 24.486C120.225 24.5607 119.927 24.598 119.619 24.598ZM119.941 23.058C120.389 23.058 120.757 22.9553 121.047 22.75C121.336 22.5353 121.551 22.2553 121.691 21.91C121.84 21.5553 121.915 21.182 121.915 20.79C121.915 20.3793 121.84 20.006 121.691 19.67C121.551 19.334 121.336 19.0633 121.047 18.858C120.757 18.6527 120.389 18.55 119.941 18.55C119.465 18.55 119.087 18.6573 118.807 18.872C118.536 19.0867 118.335 19.3713 118.205 19.726C118.083 20.0713 118.023 20.4447 118.023 20.846C118.023 21.1447 118.055 21.4293 118.121 21.7C118.195 21.9613 118.307 22.1947 118.457 22.4C118.606 22.6053 118.802 22.7687 119.045 22.89C119.287 23.002 119.586 23.058 119.941 23.058ZM127.993 24.598C127.246 24.598 126.63 24.43 126.145 24.094C125.66 23.7487 125.296 23.2913 125.053 22.722C124.82 22.1527 124.703 21.518 124.703 20.818C124.703 20.09 124.829 19.4413 125.081 18.872C125.333 18.2933 125.711 17.8407 126.215 17.514C126.719 17.178 127.349 17.01 128.105 17.01C128.385 17.01 128.656 17.0427 128.917 17.108C129.188 17.164 129.44 17.2573 129.673 17.388C129.916 17.5093 130.116 17.6727 130.275 17.878V14.602H131.983V24.5H130.331L130.303 23.576C130.126 23.8093 129.916 24.0007 129.673 24.15C129.44 24.2993 129.178 24.4113 128.889 24.486C128.6 24.5607 128.301 24.598 127.993 24.598ZM128.315 23.058C128.763 23.058 129.132 22.9553 129.421 22.75C129.71 22.5353 129.925 22.2553 130.065 21.91C130.214 21.5553 130.289 21.182 130.289 20.79C130.289 20.3793 130.214 20.006 130.065 19.67C129.925 19.334 129.71 19.0633 129.421 18.858C129.132 18.6527 128.763 18.55 128.315 18.55C127.839 18.55 127.461 18.6573 127.181 18.872C126.91 19.0867 126.71 19.3713 126.579 19.726C126.458 20.0713 126.397 20.4447 126.397 20.846C126.397 21.1447 126.43 21.4293 126.495 21.7C126.57 21.9613 126.682 22.1947 126.831 22.4C126.98 22.6053 127.176 22.7687 127.419 22.89C127.662 23.002 127.96 23.058 128.315 23.058ZM137.632 24.5V18.634H136.484V17.122H137.632V16.422C137.632 15.862 137.716 15.4047 137.884 15.05C138.052 14.686 138.318 14.42 138.682 14.252C139.055 14.084 139.531 14 140.11 14H141.202V15.512H140.306C140.054 15.512 139.858 15.554 139.718 15.638C139.578 15.722 139.475 15.848 139.41 16.016C139.354 16.1747 139.326 16.3707 139.326 16.604V17.122H141.202V18.634H139.326V24.5H137.632ZM145.222 24.598C144.466 24.598 143.813 24.444 143.262 24.136C142.721 23.828 142.301 23.3893 142.002 22.82C141.713 22.2507 141.568 21.5833 141.568 20.818C141.568 20.0433 141.717 19.376 142.016 18.816C142.315 18.2467 142.735 17.8033 143.276 17.486C143.817 17.1687 144.466 17.01 145.222 17.01C145.969 17.01 146.613 17.1687 147.154 17.486C147.695 17.8033 148.111 18.2513 148.4 18.83C148.689 19.3993 148.834 20.0713 148.834 20.846C148.834 21.602 148.689 22.2647 148.4 22.834C148.12 23.394 147.709 23.828 147.168 24.136C146.627 24.444 145.978 24.598 145.222 24.598ZM145.208 23.044C145.675 23.044 146.048 22.9413 146.328 22.736C146.617 22.5307 146.827 22.26 146.958 21.924C147.089 21.588 147.154 21.224 147.154 20.832C147.154 20.44 147.089 20.0713 146.958 19.726C146.827 19.3807 146.617 19.1053 146.328 18.9C146.048 18.6853 145.675 18.578 145.208 18.578C144.741 18.578 144.363 18.6853 144.074 18.9C143.785 19.1053 143.575 19.3807 143.444 19.726C143.313 20.062 143.248 20.4307 143.248 20.832C143.248 21.224 143.313 21.5927 143.444 21.938C143.584 22.274 143.794 22.5447 144.074 22.75C144.363 22.946 144.741 23.044 145.208 23.044ZM149.922 24.5V14.602H151.63V24.5H149.922ZM156.015 24.598C155.268 24.598 154.652 24.43 154.167 24.094C153.682 23.7487 153.318 23.2913 153.075 22.722C152.842 22.1527 152.725 21.518 152.725 20.818C152.725 20.09 152.851 19.4413 153.103 18.872C153.355 18.2933 153.733 17.8407 154.237 17.514C154.741 17.178 155.371 17.01 156.127 17.01C156.407 17.01 156.678 17.0427 156.939 17.108C157.21 17.164 157.462 17.2573 157.695 17.388C157.938 17.5093 158.138 17.6727 158.297 17.878V14.602H160.005V24.5H158.353L158.325 23.576C158.148 23.8093 157.938 24.0007 157.695 24.15C157.462 24.2993 157.2 24.4113 156.911 24.486C156.622 24.5607 156.323 24.598 156.015 24.598ZM156.337 23.058C156.785 23.058 157.154 22.9553 157.443 22.75C157.732 22.5353 157.947 22.2553 158.087 21.91C158.236 21.5553 158.311 21.182 158.311 20.79C158.311 20.3793 158.236 20.006 158.087 19.67C157.947 19.334 157.732 19.0633 157.443 18.858C157.154 18.6527 156.785 18.55 156.337 18.55C155.861 18.55 155.483 18.6573 155.203 18.872C154.932 19.0867 154.732 19.3713 154.601 19.726C154.48 20.0713 154.419 20.4447 154.419 20.846C154.419 21.1447 154.452 21.4293 154.517 21.7C154.592 21.9613 154.704 22.1947 154.853 22.4C155.002 22.6053 155.198 22.7687 155.441 22.89C155.684 23.002 155.982 23.058 156.337 23.058ZM164.683 24.598C163.918 24.598 163.265 24.4393 162.723 24.122C162.191 23.8047 161.785 23.366 161.505 22.806C161.235 22.2367 161.099 21.5787 161.099 20.832C161.099 20.0853 161.239 19.4273 161.519 18.858C161.809 18.2793 162.219 17.8267 162.751 17.5C163.293 17.1733 163.941 17.01 164.697 17.01C165.257 17.01 165.747 17.1127 166.167 17.318C166.587 17.514 166.937 17.7847 167.217 18.13C167.507 18.4753 167.721 18.8673 167.861 19.306C168.001 19.7447 168.067 20.2067 168.057 20.692C168.048 20.804 168.039 20.916 168.029 21.028C168.02 21.1307 168.006 21.2427 167.987 21.364H162.807C162.835 21.6907 162.919 21.9893 163.059 22.26C163.209 22.5307 163.414 22.7453 163.675 22.904C163.946 23.0627 164.282 23.142 164.683 23.142C164.917 23.142 165.141 23.114 165.355 23.058C165.57 22.9927 165.757 22.8993 165.915 22.778C166.083 22.6567 166.195 22.5027 166.251 22.316H167.959C167.838 22.848 167.614 23.282 167.287 23.618C166.961 23.954 166.569 24.2013 166.111 24.36C165.663 24.5187 165.187 24.598 164.683 24.598ZM162.835 20.09H166.391C166.391 19.782 166.321 19.502 166.181 19.25C166.041 18.998 165.841 18.802 165.579 18.662C165.327 18.5127 165.019 18.438 164.655 18.438C164.263 18.438 163.937 18.5173 163.675 18.676C163.414 18.8347 163.213 19.04 163.073 19.292C162.933 19.544 162.854 19.81 162.835 20.09ZM169.138 24.5V17.122H170.692L170.79 18.088C170.977 17.808 171.187 17.5933 171.42 17.444C171.663 17.2853 171.92 17.1733 172.19 17.108C172.47 17.0427 172.75 17.01 173.03 17.01C173.133 17.01 173.226 17.01 173.31 17.01C173.404 17.01 173.478 17.0147 173.534 17.024V18.648H173.086C172.601 18.648 172.19 18.7413 171.854 18.928C171.518 19.1147 171.266 19.3807 171.098 19.726C170.93 20.0713 170.846 20.496 170.846 21V24.5H169.138Z" fill="white"/>
</svg>
